<svg width="10" height="10" viewBox="0 0 10 10" fill="none" xmlns="http://www.w3.org/2000/svg">
<g clip-path="url(#clip0_3_2)">
<path d="M7.08333 0.833333H2.91667C1.76607 0.833333 0.833333 1.76607 0.833333 2.91667V7.08333C0.833333 8.23393 1.76607 9.16667 2.91667 9.16667H7.08333C8.23393 9.16667 9.16667 8.23393 9.16667 7.08333V2.91667C9.16667 1.76607 8.23393 0.833333 7.08333 0.833333Z" stroke="white" stroke-linecap="round" stroke-linejoin="round"/>
<path d="M6.66667 4.7375C6.71809 5.08427 6.65886 5.43842 6.4974 5.74959C6.33594 6.06076 6.08048 6.31309 5.76734 6.4707C5.45421 6.62831 5.09935 6.68317 4.75324 6.62747C4.40714 6.57178 4.0874 6.40837 3.83952 6.16048C3.59163 5.9126 3.42822 5.59286 3.37253 5.24676C3.31683 4.90065 3.37169 4.54579 3.5293 4.23266C3.68691 3.91952 3.93924 3.66406 4.25041 3.5026C4.56158 3.34114 4.91573 3.28191 5.2625 3.33333C5.61622 3.38578 5.94369 3.55061 6.19654 3.80346C6.44939 4.05631 6.61421 4.38378 6.66667 4.7375Z" stroke="white" stroke-linecap="round" stroke-linejoin="round"/>
<path d="M7.29167 2.70833H7.29542" stroke="white" stroke-linecap="round" stroke-linejoin="round"/>
</g>
<defs>
<clipPath id="clip0_3_2">
<rect width="10" height="10" fill="white"/>
</clipPath>
</defs>
</svg>
