<svg width="27" height="27" viewBox="0 0 27 27" fill="none" xmlns="http://www.w3.org/2000/svg">
<path d="M19.125 2.25H7.875C4.7684 2.25 2.25 4.7684 2.25 7.875V19.125C2.25 22.2316 4.7684 24.75 7.875 24.75H19.125C22.2316 24.75 24.75 22.2316 24.75 19.125V7.875C24.75 4.7684 22.2316 2.25 19.125 2.25Z" stroke="white" stroke-width="2" stroke-linecap="round" stroke-linejoin="round"/>
<path d="M18.0002 12.7913C18.139 13.7275 17.9791 14.6837 17.5431 15.5239C17.1072 16.364 16.4174 17.0453 15.572 17.4709C14.7265 17.8964 13.7684 18.0446 12.8339 17.8942C11.8994 17.7438 11.0361 17.3026 10.3669 16.6333C9.69757 15.964 9.25636 15.1007 9.10598 14.1662C8.95561 13.2317 9.10373 12.2736 9.52928 11.4282C9.95482 10.5827 10.6361 9.89296 11.4763 9.45703C12.3164 9.02109 13.2726 8.86117 14.2089 9C15.1639 9.14162 16.0481 9.58665 16.7308 10.2693C17.4135 10.952 17.8585 11.8362 18.0002 12.7913Z" stroke="white" stroke-width="2" stroke-linecap="round" stroke-linejoin="round"/>
<path d="M19.6875 7.3125H19.6988" stroke="white" stroke-width="2" stroke-linecap="round" stroke-linejoin="round"/>
</svg>
