<svg xmlns="http://www.w3.org/2000/svg" width="200" height="200" viewBox="0 0 100 100">
  <defs>
    <radialGradient id="grapeGold" cx="40%" cy="35%" r="60%">
      <stop offset="0%" stop-color="#FFEC8B" />
      <stop offset="40%" stop-color="#FFD700" />
      <stop offset="100%" stop-color="#B8860B" />
    </radialGradient>
    <radialGradient id="grapeShine" cx="30%" cy="25%" r="50%">
      <stop offset="0%" stop-color="#FFFACD" stop-opacity="0.9" />
      <stop offset="100%" stop-color="#FFD700" stop-opacity="0" />
    </radialGradient>
    <linearGradient id="stemGradient" x1="0%" y1="0%" x2="100%" y2="100%">
      <stop offset="0%" stop-color="#8B7355" />
      <stop offset="100%" stop-color="#5D4E37" />
    </linearGradient>
    <linearGradient id="leafGradient" x1="0%" y1="0%" x2="100%" y2="100%">
      <stop offset="0%" stop-color="#7CB342" />
      <stop offset="100%" stop-color="#558B2F" />
    </linearGradient>
  </defs>
  <circle cx="35" cy="45" r="14" fill="url(#grapeGold)" />
  <circle cx="32" cy="40" r="6" fill="url(#grapeShine)" />
  <circle cx="58" cy="42" r="13" fill="url(#grapeGold)" />
  <circle cx="55" cy="37" r="5" fill="url(#grapeShine)" />
  <circle cx="46" cy="55" r="15" fill="url(#grapeGold)" />
  <circle cx="42" cy="49" r="6" fill="url(#grapeShine)" />
  <circle cx="30" cy="65" r="12" fill="url(#grapeGold)" />
  <circle cx="27" cy="60" r="5" fill="url(#grapeShine)" />
  <circle cx="55" cy="68" r="13" fill="url(#grapeGold)" />
  <circle cx="51" cy="63" r="5" fill="url(#grapeShine)" />
  <circle cx="42" cy="78" r="11" fill="url(#grapeGold)" />
  <circle cx="39" cy="74" r="4" fill="url(#grapeShine)" />
  <circle cx="68" cy="55" r="11" fill="url(#grapeGold)" />
  <circle cx="65" cy="51" r="4" fill="url(#grapeShine)" />
  <path d="M46 32 Q44 18 48 8" stroke="#6B4E2A" stroke-width="6" fill="none" stroke-linecap="round" />
  <path d="M48 10 Q60 0 76 10 Q68 20 60 17 Q54 14 48 10" fill="url(#leafGradient)" stroke="#4A7A25" stroke-width="2" />
  <path d="M48 10 Q36 2 22 12 Q30 20 38 17 Q44 14 48 10" fill="url(#leafGradient)" stroke="#4A7A25" stroke-width="2" />
  <path d="M56 6 Q60 3 66 6" stroke="#5D8A3E" stroke-width="2.5" fill="none" stroke-linecap="round" opacity="0.7" />
</svg>
