<svg xmlns="http://www.w3.org/2000/svg" viewBox="0 0 38.51 38.51" id="tiktok">
  <defs>
    <linearGradient id="a" x1="3.65" x2="34.85" y1=".66" y2="37.84" gradientUnits="userSpaceOnUse">
      <stop offset="0" stop-color="#323232"></stop>
      <stop offset="1"></stop>
    </linearGradient>
    <linearGradient id="b" x1="3.85" x2="35.05" y1=".5" y2="37.68" gradientUnits="userSpaceOnUse">
      <stop offset="0" stop-color="#646464"></stop>
      <stop offset=".43" stop-color="#1d1d1d"></stop>
      <stop offset=".6"></stop>
    </linearGradient>
  </defs>
  <g style="isolation:isolate">
    <g>
      <g>
        <g>
          <rect width="38.51" height="38.51" fill="url(#a)" rx="6.97" ry="6.97"></rect>
          <g>
            <path fill="url(#b)" d="M38.51,31.54v-11.64c-2.31-2.35-4.72-4.62-6.98-7.03-.45,0-.9-.05-1.33-.14v3.59c-2.37,0-4.56-.75-6.35-2.03v9.3c0,4.65-3.77,8.42-8.43,8.42-1.74,0-3.35-.52-4.69-1.42,2.69,2.67,5.27,5.27,7.92,7.92h12.9c3.83,0,6.97-3.14,6.97-6.97Z"></path>
            <path fill="#ff1753" d="M38.51,31.54v-11.64c-2.31-2.35-4.72-4.62-6.98-7.03-.45,0-.9-.05-1.33-.14v3.59c-2.37,0-4.56-.75-6.35-2.03v9.3c0,4.65-3.77,8.42-8.43,8.42-1.74,0-3.35-.52-4.69-1.42,2.69,2.67,5.27,5.27,7.92,7.92h12.9c3.83,0,6.97-3.14,6.97-6.97Z" style="mix-blend-mode:multiply"></path>
          </g>
          <g>
            <g>
              <path fill="#ff1753" fill-rule="evenodd" d="M26.82,10.8c-.92-1-1.52-2.29-1.65-3.72v-.59h-1.26c.32,1.81,1.4,3.37,2.91,4.31h0ZM13.66,27.02c-.51-.67-.79-1.49-.79-2.33,0-2.13,1.73-3.85,3.86-3.85.4,0,.79.06,1.17.18v-4.66c-.44-.06-.89-.09-1.33-.08v3.63c-.38-.12-.77-.18-1.17-.18-2.13,0-3.86,1.73-3.86,3.85,0,1.5.86,2.81,2.12,3.44Z" opacity=".8"></path>
              <path fill="#fff" fill-rule="evenodd" d="M23.84,14.29c1.79,1.28,3.99,2.03,6.35,2.03v-3.59c-1.32-.28-2.49-.97-3.37-1.93-1.51-.94-2.59-2.49-2.91-4.31h-3.32v18.2c0,2.12-1.73,3.84-3.86,3.84-1.25,0-2.36-.6-3.07-1.52-1.26-.63-2.12-1.94-2.12-3.44,0-2.13,1.73-3.85,3.86-3.85.41,0,.8.06,1.17.18v-3.63c-4.57.09-8.25,3.83-8.25,8.42,0,2.29.92,4.37,2.4,5.89,1.34.9,2.96,1.42,4.69,1.42,4.65,0,8.43-3.77,8.43-8.42v-9.3Z"></path>
              <path fill="#00c9d0" fill-rule="evenodd" d="M30.19,12.73v-.97c-1.19,0-2.36-.33-3.37-.96.9.98,2.08,1.66,3.37,1.93ZM23.91,6.49c-.03-.17-.05-.35-.07-.52v-.59h-4.59v18.2c0,2.12-1.73,3.84-3.86,3.84-.62,0-1.21-.15-1.73-.41.7.92,1.82,1.52,3.07,1.52,2.12,0,3.85-1.72,3.86-3.84V6.49h3.32ZM16.57,16.28v-1.03c-.38-.05-.77-.08-1.16-.08-4.66,0-8.43,3.77-8.43,8.42,0,2.92,1.48,5.49,3.74,7-1.49-1.52-2.4-3.6-2.4-5.89,0-4.59,3.68-8.33,8.25-8.42h0Z"></path>
            </g>
            <path fill="#ff1753" fill-rule="evenodd" d="M25.17,15.4c1.79,1.28,3.99,2.03,6.35,2.03v-4.56c-.45,0-.9-.05-1.33-.14v3.59c-2.37,0-4.56-.75-6.35-2.03v9.3c0,4.65-3.77,8.42-8.43,8.42-1.74,0-3.35-.52-4.69-1.42,1.53,1.56,3.66,2.53,6.03,2.53,4.66,0,8.43-3.77,8.43-8.42v-9.3h0Z" opacity=".8"></path>
          </g>
        </g>
      </g>
    </g>
  </g>
</svg>
