<svg width="27" height="27" viewBox="0 0 27 27" fill="none" xmlns="http://www.w3.org/2000/svg">
<path d="M25.3572 7.2225C25.2235 6.68859 24.9514 6.19939 24.5682 5.80433C24.1849 5.40927 23.7043 5.12233 23.1747 4.9725C21.2397 4.5 13.4997 4.5 13.4997 4.5C13.4997 4.5 5.75967 4.5 3.82467 5.0175C3.29507 5.16733 2.81439 5.45427 2.43118 5.84933C2.04797 6.24439 1.7758 6.73359 1.64217 7.2675C1.28803 9.23125 1.11481 11.2233 1.12467 13.2187C1.11204 15.2292 1.28528 17.2365 1.64217 19.215C1.7895 19.7323 2.06776 20.2029 2.45008 20.5813C2.8324 20.9597 3.30584 21.233 3.82467 21.375C5.75967 21.8925 13.4997 21.8925 13.4997 21.8925C13.4997 21.8925 21.2397 21.8925 23.1747 21.375C23.7043 21.2252 24.1849 20.9382 24.5682 20.5432C24.9514 20.1481 25.2235 19.6589 25.3572 19.125C25.7086 17.176 25.8818 15.1991 25.8747 13.2187C25.8873 11.2083 25.7141 9.20104 25.3572 7.2225Z" stroke="white" stroke-width="2" stroke-linecap="round" stroke-linejoin="round"/>
<path d="M10.9688 16.8975L17.4375 13.2187L10.9688 9.53999V16.8975Z" stroke="white" stroke-width="2" stroke-linecap="round" stroke-linejoin="round"/>
</svg>
