<svg width="40" height="40" viewBox="0 0 40 40" fill="none" xmlns="http://www.w3.org/2000/svg">
<mask id="mask0_2008_446" style="mask-type:alpha" maskUnits="userSpaceOnUse" x="0" y="0" width="40" height="40">
<rect width="40" height="40" fill="#D9D9D9"/>
</mask>
<g mask="url(#mask0_2008_446)">
<path d="M29.9987 21.6667V18.3334H36.6654V21.6667H29.9987ZM31.9987 33.3334L26.6654 29.3334L28.6654 26.6667L33.9987 30.6667L31.9987 33.3334ZM28.6654 13.3334L26.6654 10.6667L31.9987 6.66669L33.9987 9.33335L28.6654 13.3334ZM8.33203 31.6667V25H6.66536C5.7487 25 4.96398 24.6736 4.3112 24.0209C3.65842 23.3681 3.33203 22.5834 3.33203 21.6667V18.3334C3.33203 17.4167 3.65842 16.632 4.3112 15.9792C4.96398 15.3264 5.7487 15 6.66536 15H13.332L21.6654 10V30L13.332 25H11.6654V31.6667H8.33203ZM18.332 24.0834V15.9167L14.2487 18.3334H6.66536V21.6667H14.2487L18.332 24.0834ZM23.332 25.5834V14.4167C24.082 15.0834 24.6862 15.8959 25.1445 16.8542C25.6029 17.8125 25.832 18.8611 25.832 20C25.832 21.1389 25.6029 22.1875 25.1445 23.1459C24.6862 24.1042 24.082 24.9167 23.332 25.5834Z" fill="#FFFFFF"/>
</g>
</svg>
