<svg width="35" height="35" viewBox="0 0 35 35" fill="none" xmlns="http://www.w3.org/2000/svg">
<path d="M24.7904 30.625V27.7083C24.7904 26.1612 24.1758 24.6775 23.0818 23.5835C21.9879 22.4896 20.5041 21.875 18.957 21.875H7.29036C5.74327 21.875 4.25954 22.4896 3.16558 23.5835C2.07161 24.6775 1.45703 26.1612 1.45703 27.7083V30.625" stroke="#FFFFFF" stroke-width="2" stroke-linecap="round" stroke-linejoin="round"/>
<path d="M13.1263 16.0417C16.348 16.0417 18.9596 13.43 18.9596 10.2083C18.9596 6.98667 16.348 4.375 13.1263 4.375C9.90464 4.375 7.29297 6.98667 7.29297 10.2083C7.29297 13.43 9.90464 16.0417 13.1263 16.0417Z" stroke="#FFFFFF" stroke-width="2" stroke-linecap="round" stroke-linejoin="round"/>
<path d="M33.543 30.625V27.7083C33.542 26.4158 33.1118 25.1603 32.32 24.1388C31.5281 23.1173 30.4194 22.3877 29.168 22.0646" stroke="#FFFFFF" stroke-width="2" stroke-linecap="round" stroke-linejoin="round"/>
<path d="M23.332 4.56458C24.5868 4.88585 25.699 5.6156 26.4932 6.63878C27.2874 7.66196 27.7185 8.92037 27.7185 10.2156C27.7185 11.5109 27.2874 12.7693 26.4932 13.7925C25.699 14.8156 24.5868 15.5454 23.332 15.8667" stroke="#FFFFFF" stroke-width="2" stroke-linecap="round" stroke-linejoin="round"/>
</svg>
